<svg xmlns="http://www.w3.org/2000/svg" version="1.1" xmlns:xlink="http://www.w3.org/1999/xlink" xmlns:svgjs="http://svgjs.com/svgjs" width="1600" height="700" preserveAspectRatio="none" viewBox="0 0 1600 700"><g mask="url(&quot;#SvgjsMask1095&quot;)" fill="none"><rect width="1600" height="700" x="0" y="0" fill="rgba(156, 160, 165, 1)"></rect><path d="M0,418.621C90.547,433.592,192.515,469.315,269.75,419.74C346.985,370.165,347.809,259.565,381.064,174.026C412.151,94.064,462.658,19.762,458.567,-65.932C454.282,-155.699,411.521,-238.008,357.951,-310.166C301.261,-386.526,234.188,-460.179,143.838,-489.868C52.257,-519.961,-56.473,-523.248,-139.023,-473.468C-218.221,-425.71,-222.102,-314.032,-274.326,-237.705C-318.567,-173.046,-394.129,-134.009,-421.512,-60.604C-452.538,22.567,-477.825,120.716,-437.537,199.816C-397.382,278.656,-297.064,299.532,-217.93,339.105C-147.339,374.406,-77.869,405.746,0,418.621" fill="#92969c"></path><path d="M1600 1197.618C1700.5 1199.636 1803.228 1201.399 1892.347 1154.901 1985.965 1106.056 2063.449 1027.724 2108.585 932.263 2154.047 836.113 2157.849 727.228 2144.447 621.72 2130.879 514.898 2109.362 400.498 2031.5819999999999 326.032 1955.686 253.37 1836.841 265.987 1737.41 232.026 1632.077 196.04899999999998 1539.573 101.81899999999996 1429.846 120.50800000000004 1318.542 139.46500000000003 1221.988 227.61 1171.219 328.459 1123.853 422.549 1167.202 532.755 1169.295 638.074 1171.005 724.127 1158.527 808.02 1182.392 890.715 1209.309 983.9870000000001 1236.877 1085.8229999999999 1315.1019999999999 1143.311 1394.614 1201.745 1501.345 1195.637 1600 1197.618" fill="#a6aaae"></path></g><defs><mask id="SvgjsMask1095"><rect width="1600" height="700" fill="#ffffff"></rect></mask></defs></svg>